<svg width="205" height="477" viewBox="0 0 205 477" fill="none" xmlns="http://www.w3.org/2000/svg">
<path d="M147.885 215.124C141.682 199.891 46.0432 193.535 42.8057 211.281C60.0905 210.647 79.1343 204.325 97.5709 206.59C113.969 209.866 131.433 214.3 147.885 215.124Z" fill="#E1B0AA" fill-opacity="0.42"/>
<path d="M32.0422 93.783C38.0737 91.0727 46.5488 100.207 50.0353 93.9889C54.4091 83.4647 61.639 77.2034 71.834 73.5925C91.6949 62.3307 93.3137 81.4748 106.661 79.5107C113.011 75.4194 119.883 71.5511 127.191 70.3246C142.016 70.2131 151.698 81.5006 156.445 96.1589C197.389 95.893 218.471 125.724 195.591 168.961C190.4 178.739 181.917 185.756 176.041 195.122C174.368 197.48 175.294 200.928 177.917 203.939C181.816 207.284 177.349 215.604 173.318 211.504C132.654 185.001 79.3908 185.79 34.6649 198.278C7.13053 211.839 28.1199 195.096 20.4853 183.525C-0.441817 154.852 -16.9796 93.4056 32.0422 93.783ZM152.601 118.828C156.445 68.309 101.983 72.1429 105.727 94.0832C111.252 98.8349 122.498 99.6927 123.191 109.282C123.401 116.967 125.992 127.534 117.867 131.136C102.45 138.092 108.918 144.697 117.945 155.007C128.724 169.365 78.7371 183.423 118.257 183.688C123.502 185.198 136.436 189.718 136.95 181.15C140.709 160.985 153.698 141.223 152.608 118.82L152.601 118.828ZM51.8253 110.946C54.8215 134.353 61.2888 157.4 70.3554 178.774C74.3322 184.023 81.3987 179.734 86.4962 182.239C92.3642 185.309 97.1115 179.04 91.8584 174.914C74.0365 156.345 81.6244 154.732 97.2594 140.734C98.7848 138.255 98.9171 134.636 95.0803 134.276C85.072 131.479 79.7644 114.788 86.9476 106.203C89.4302 98.6634 99.7653 99.6069 100.567 91.9561C91.3992 60.7868 48.1364 81.8351 51.8409 110.937L51.8253 110.946ZM160.025 118.734C160.928 132.946 154.608 149.028 150.655 163.223C150.421 171.655 130.903 187.951 146.102 189.752C154.227 192.351 166.555 201.846 170.446 188.372C179.427 174.425 194.852 164.467 198.455 146.447C199.49 136 198.782 123.726 191.972 115.629C182.929 107.695 155.854 94.4349 160.025 118.725V118.734ZM28.9759 101.185C-12.5903 108.965 22.2675 158.232 29.0382 183.139C28.221 186.622 32.3925 189.873 35.2019 188.972C57.1329 179.529 67.9195 195.902 57.0551 160.582C53.8721 151.944 51.5763 142.57 48.6111 133.778C46.1285 115.2 50.8136 102.36 28.9759 101.185ZM104.17 101.854C81.8267 103.638 88.3018 139.036 108.419 133.264C123.93 128.735 119.813 100.619 104.17 101.854ZM111.953 159.938C109.859 155.307 105.338 143.093 99.0805 145.229C95.6095 149.08 87.9827 151.696 87.4613 157.305C93.7028 171.783 106.342 179.571 111.953 159.947V159.938Z" fill="#E1B0AA" fill-opacity="0.42"/>
<path d="M167.972 297.644C167.87 309.67 165.559 321.506 166.796 333.488C167.388 341.422 164.259 349.124 164.765 356.998C165.302 363.86 168.874 369.889 169.551 376.734C170.003 380.345 170.011 384.016 170.252 387.653C170.61 394.043 171.816 400.304 171.466 406.694C171.17 412.381 170.104 418.033 170.283 423.745C170.968 434.106 172.711 444.09 171.443 454.614C170.664 478.682 152.866 477.284 136.102 476.58C126.133 477.172 119.884 474.728 118.568 462.54C117.751 449.185 117.152 435.727 117.463 422.321C117.635 414.842 118.989 407.457 119.043 399.987C119.028 391.187 117.487 382.489 117.736 373.689C118.226 339.801 115.51 305.046 118.436 271.613C118.755 268.662 119.409 265.892 120.849 264.031C124.81 259.288 132.032 260.42 137.558 260.12C158.057 259.708 169.419 275.867 167.979 297.464V297.644H167.972ZM127.363 428.66C127.409 435.299 127.152 442.195 127.199 448.979C127.106 457.788 129.293 462.891 138.313 462.797C144.165 462.763 152.103 463.586 157.138 460.747C161.263 457.994 160.306 452.933 160.446 447.864C160.384 441.243 160.89 433.643 160.952 427.219C160.804 413.71 160.135 400.184 160.275 386.641C160.212 381.649 160.29 376.048 158.01 371.665C154.485 364.829 146.531 365.927 140.196 365.086C130.981 363.68 127.176 366.236 126.981 376.88C126.53 393.983 127.581 411.42 127.363 428.488V428.66ZM127.082 337.905C127.106 346.251 126.686 355.514 136.032 356.26C141.418 356.578 149.006 357.067 153.286 353.713C155.948 351.5 156.734 347.949 157.169 343.927C158.189 332.562 157.761 321.214 157.738 309.815C157.644 298.494 159.567 284.376 152.01 275.55C146.982 269.64 134.522 266.304 129.028 272.522C125.993 276.407 127.051 283.08 126.888 288.767C126.849 296.092 126.25 303.391 126.094 310.699C125.915 319.773 127.191 328.754 127.075 337.734V337.905H127.082Z" fill="#E1B0AA" fill-opacity="0.42"/>
<path d="M86.9163 428.48C87.3599 417.69 85.3442 406.977 85.5543 396.17C85.2742 389.42 88.5584 379.607 83.2429 374.744C78.3088 370.781 64.3004 375.619 65.3666 365.369C67.8258 355.771 94.5431 358.044 96.2552 367.205C97.8117 372.463 96.7922 378.089 96.9868 383.57C96.7689 407.397 101.259 438.043 93.2823 460.961C85.4687 479.394 58.9772 479.505 45.6302 468.535C37.373 460.747 31.5906 449.477 32.7891 437.357C34.2989 390.389 33.832 343.386 34.1978 296.384C33.2716 267.513 63.4988 250.367 85.8656 263.859C90.683 266.544 94.2629 277.016 89.8269 280.782C86.1147 281.554 83.2585 276.296 80.3556 274.22C68.8376 265.051 46.8754 270.103 45.28 288.132C45.6769 340.641 43.7469 394.231 49.0467 446.68C51.3581 462.265 70.2773 470.165 81.0872 459.58C87.6089 451.381 85.7645 438.815 86.9163 428.651V428.48Z" fill="#E1B0AA" fill-opacity="0.42"/>
<path d="M91.8894 12.8754C102.403 15.6287 94.2942 -2.96653 105.018 1.49357C108.388 2.7201 108.365 4.933 108.295 7.81491C106.513 17.9102 116.381 11.769 118.848 18.1761C119.642 29.4464 105.945 22.0186 104.264 29.7123C104.131 32.1654 102.902 35.5019 106.832 36.3939C110.505 38.7955 113.003 43.9332 115.361 47.8014C118.692 55.8468 104.31 74.7679 98.162 65.6933C77.7408 44.7909 101.742 48.5734 98.2866 26.1442C97.2126 21.6755 91.687 22.6876 88.5273 21.2038C84.2081 18.5106 86.8697 10.9713 91.8894 12.8926V12.8754ZM96.5122 52.0814C95.3915 65.1615 111.509 60.0496 107.945 50.4604C104.933 44.6193 96.1153 41.523 96.5122 52.0814Z" fill="#E1B0AA" fill-opacity="0.42"/>
<path d="M147.885 215.124C131.433 214.3 113.961 209.866 97.5709 206.59C79.1343 204.325 60.0828 210.646 42.8057 211.29C45.8564 193.612 141.558 199.805 147.885 215.124Z" fill="#E1B0AA" fill-opacity="0.42"/>
</svg>
