<svg width="1447" height="1248" viewBox="0 0 1447 1248" fill="none" xmlns="http://www.w3.org/2000/svg">
<path d="M16.1786 1196C16.1792 1196.01 16.1799 1196.02 16.1806 1196.04M14.013 1195.74L16.4482 1245.53L38.3888 1244.46L33.5896 1146.33M80.4604 1143.61L82.8956 1193.41L104.836 1192.33L100 1093.45M165.384 1000.46L2.11816 1133.38M147.807 1090.75L150.242 1140.54L172.182 1139.47L167.383 1041.34M231.829 948.337L143.256 1017.83M214.252 1038.63L216.688 1088.42L238.628 1087.35L233.806 988.744M299.054 895.767L210.481 965.259M281.477 986.059L283.912 1035.85L305.853 1034.78L301.053 936.652M365.499 843.645L276.926 913.137M347.922 933.937L350.357 983.729L372.298 982.656L367.458 883.702M433.163 790.669L344.335 860.174M415.525 880.964L417.961 930.756L439.962 929.68L435.163 831.553M499.8 738.538L410.972 808.042M482.162 828.833L484.597 878.624L506.599 877.548L501.777 778.945M567.219 685.959L478.391 755.463M549.581 776.254L552.016 826.045L574.018 824.969L569.219 726.843M633.856 633.827L545.028 703.332M616.218 724.122L618.653 773.914L640.655 772.838L635.819 673.957M701.397 580.954L612.569 650.459M683.759 671.249L686.194 721.04L708.196 719.964L703.397 621.838M768.034 528.822L679.206 598.327M750.396 619.117L752.831 668.909L774.833 667.833L770.01 569.23M835.453 476.243L746.625 545.748M817.815 566.538L820.25 616.33L842.252 615.254L837.453 517.128M902.09 424.112L813.262 493.617M884.452 514.407L886.887 564.198L908.889 563.122L904.018 463.525M969.885 370.996L881.312 440.489M952.308 461.288L954.743 511.08L976.684 510.007L971.885 411.881M1036.33 318.874L947.757 388.367M1018.75 409.166L1021.19 458.958L1043.13 457.885L1038.31 359.282M1103.56 266.305L1014.98 335.797M1085.98 356.597L1088.41 406.388L1110.35 405.315L1105.55 307.189M1170 214.183L1081.43 283.675M1152.43 304.475L1154.86 354.266L1176.8 353.193L1171.97 254.312M1237.35 161.319L1148.78 230.811M1219.77 251.611L1222.21 301.402L1244.15 300.329L1239.35 202.203M1303.79 109.197L1215.22 178.689M1286.22 199.489L1288.65 249.28L1310.59 248.207L1305.77 149.604M1371.02 56.6273L1282.45 126.12M1353.44 146.919L1355.88 196.711L1377.82 195.638L1373.02 97.5117M1348.89 73.9974L1437.46 4.50513L1444.26 143.516L1422.32 144.589L1419.89 94.7972M78.3289 1144.12C78.3283 1144.11 78.3277 1144.1 78.3271 1144.08C77.7915 1133.13 67.9986 1124.39 56.0617 1124.97C44.1248 1125.56 35.2321 1135.22 35.7677 1146.17C35.7683 1146.18 35.7689 1146.19 35.7696 1146.21L31.4712 1146.42C31.4705 1146.4 31.4698 1146.39 31.4692 1146.38C30.8087 1132.87 41.725 1121.36 55.8515 1120.67C69.9779 1119.98 81.9651 1130.37 82.6256 1143.87C82.6262 1143.89 82.6268 1143.9 82.6275 1143.91L78.3289 1144.12ZM145.675 1091.26C145.674 1091.25 145.674 1091.23 145.673 1091.22C145.141 1080.34 135.205 1071.53 122.92 1072.13C110.635 1072.73 101.606 1082.47 102.138 1093.35C102.139 1093.36 102.14 1093.38 102.14 1093.39L97.8417 1093.6C97.841 1093.59 97.8403 1093.57 97.8397 1093.56C97.1792 1080.06 108.314 1068.54 122.71 1067.83C137.105 1067.13 149.311 1077.51 149.971 1091.01C149.972 1091.02 149.973 1091.04 149.973 1091.05L145.675 1091.26ZM212.121 1039.14C212.121 1039.13 212.12 1039.11 212.12 1039.1C211.584 1028.15 201.791 1019.4 189.854 1019.99C177.917 1020.57 169.025 1030.23 169.56 1041.18C169.561 1041.19 169.561 1041.21 169.562 1041.22L165.264 1041.43C165.263 1041.42 165.262 1041.4 165.262 1041.39C164.601 1027.89 175.517 1016.38 189.644 1015.69C203.77 1015 215.758 1025.38 216.418 1038.89C216.419 1038.9 216.419 1038.92 216.42 1038.93L212.121 1039.14ZM279.346 986.569C279.345 986.556 279.345 986.543 279.344 986.529C278.812 975.644 268.893 966.839 256.651 967.437C244.408 968.036 235.396 977.768 235.929 988.652C235.929 988.666 235.93 988.679 235.931 988.693L231.632 988.903C231.631 988.89 231.631 988.876 231.63 988.863C230.97 975.358 242.078 963.841 256.44 963.139C270.803 962.436 282.982 972.814 283.643 986.319C283.643 986.332 283.644 986.346 283.644 986.359L279.346 986.569ZM345.791 934.447C345.79 934.434 345.789 934.42 345.789 934.407C345.253 923.457 335.46 914.71 323.523 915.294C311.586 915.878 302.694 925.538 303.229 936.488C303.23 936.502 303.231 936.515 303.231 936.529L298.933 936.739C298.932 936.726 298.931 936.712 298.931 936.699C298.27 923.194 309.187 911.687 323.313 910.996C337.44 910.305 349.427 920.692 350.087 934.197C350.088 934.21 350.089 934.224 350.089 934.237L345.791 934.447ZM413.4 881.474C413.399 881.461 413.399 881.447 413.398 881.434C412.867 870.576 402.894 861.746 390.522 862.351C378.15 862.956 369.086 872.717 369.617 883.575C369.618 883.588 369.619 883.602 369.62 883.615L365.321 883.826C365.32 883.812 365.32 883.799 365.319 883.785C364.659 870.281 375.848 858.76 390.312 858.052C404.775 857.345 417.036 867.719 417.696 881.223C417.697 881.237 417.698 881.25 417.698 881.264L413.4 881.474ZM480.037 829.343C480.036 829.329 480.036 829.316 480.035 829.302C479.5 818.363 469.686 809.607 457.698 810.193C445.711 810.779 436.798 820.451 437.333 831.391C437.334 831.404 437.335 831.418 437.335 831.431L433.037 831.641C433.036 831.628 433.035 831.614 433.035 831.601C432.374 818.096 443.323 806.587 457.488 805.894C471.654 805.202 483.673 815.588 484.333 829.092C484.334 829.105 484.335 829.119 484.335 829.132L480.037 829.343ZM547.456 776.764C547.455 776.75 547.455 776.737 547.454 776.723C546.922 765.849 536.982 757.034 524.688 757.635C512.394 758.236 503.362 767.98 503.893 778.854C503.894 778.867 503.895 778.881 503.896 778.894L499.597 779.104C499.596 779.091 499.596 779.077 499.595 779.064C498.935 765.559 510.075 754.041 524.478 753.336C538.881 752.632 551.092 763.009 551.752 776.513C551.753 776.526 551.754 776.54 551.754 776.553L547.456 776.764ZM614.093 724.632C614.092 724.619 614.091 724.605 614.091 724.592C613.556 713.653 603.742 704.896 591.754 705.482C579.767 706.069 570.854 715.741 571.389 726.68C571.39 726.694 571.39 726.707 571.391 726.721L567.093 726.931C567.092 726.917 567.091 726.904 567.091 726.89C566.43 713.386 577.378 701.877 591.544 701.184C605.71 700.491 617.729 710.877 618.389 724.381C618.39 724.395 618.391 724.408 618.391 724.422L614.093 724.632ZM681.634 671.759C681.633 671.745 681.633 671.732 681.632 671.718C681.101 660.854 671.143 652.03 658.806 652.633C646.47 653.237 637.421 662.99 637.952 673.855C637.953 673.868 637.953 673.882 637.954 673.895L633.656 674.105C633.655 674.092 633.654 674.078 633.654 674.065C632.993 660.561 644.16 649.041 658.596 648.335C673.032 647.629 685.27 658.004 685.93 671.508C685.931 671.522 685.932 671.535 685.932 671.549L681.634 671.759ZM748.271 619.627C748.27 619.614 748.269 619.6 748.269 619.587C747.734 608.648 737.92 599.891 725.932 600.478C713.945 601.064 705.032 610.736 705.567 621.675C705.568 621.689 705.568 621.702 705.569 621.716L701.271 621.926C701.27 621.913 701.269 621.899 701.269 621.886C700.608 608.381 711.556 596.872 725.722 596.179C739.888 595.487 751.907 605.872 752.567 619.377C752.568 619.39 752.569 619.404 752.569 619.417L748.271 619.627ZM815.689 567.048C815.689 567.035 815.688 567.021 815.688 567.008C815.156 556.134 805.216 547.319 792.922 547.92C780.628 548.521 771.596 558.265 772.128 569.138C772.128 569.152 772.129 569.165 772.13 569.179L767.831 569.389C767.83 569.376 767.83 569.362 767.829 569.349C767.169 555.844 778.309 544.326 792.712 543.621C807.114 542.917 819.326 553.293 819.986 566.798C819.987 566.811 819.987 566.825 819.988 566.838L815.689 567.048ZM882.326 514.917C882.326 514.903 882.325 514.89 882.324 514.876C881.789 503.937 871.976 495.181 859.988 495.767C848 496.354 839.088 506.026 839.623 516.965C839.624 516.978 839.624 516.992 839.625 517.005L835.326 517.216C835.326 517.202 835.325 517.189 835.324 517.175C834.664 503.671 845.612 492.162 859.778 491.469C873.943 490.776 885.963 501.162 886.623 514.666C886.624 514.68 886.624 514.693 886.625 514.707L882.326 514.917ZM950.178 461.799C950.177 461.785 950.177 461.772 950.176 461.758C949.646 450.916 939.643 442.072 927.199 442.68C914.755 443.289 905.663 453.067 906.194 463.909C906.194 463.923 906.195 463.936 906.196 463.95L901.897 464.16C901.896 464.147 901.896 464.133 901.895 464.12C901.235 450.615 912.47 439.092 926.989 438.382C941.508 437.672 953.814 448.044 954.475 461.548C954.475 461.562 954.476 461.575 954.477 461.588L950.178 461.799ZM1016.62 409.677C1016.62 409.663 1016.62 409.65 1016.62 409.636C1016.09 398.686 1006.29 389.94 994.355 390.523C982.418 391.107 973.526 400.768 974.061 411.718C974.062 411.731 974.063 411.745 974.063 411.758L969.765 411.968C969.764 411.955 969.764 411.941 969.763 411.928C969.102 398.423 980.019 386.916 994.145 386.225C1008.27 385.534 1020.26 395.922 1020.92 409.426C1020.92 409.439 1020.92 409.453 1020.92 409.466L1016.62 409.677ZM1083.85 357.107C1083.85 357.094 1083.85 357.08 1083.85 357.067C1083.31 346.182 1073.39 337.376 1061.15 337.975C1048.91 338.574 1039.9 348.305 1040.43 359.19C1040.43 359.204 1040.43 359.217 1040.43 359.23L1036.13 359.441C1036.13 359.427 1036.13 359.414 1036.13 359.4C1035.47 345.896 1046.58 334.379 1060.94 333.676C1075.3 332.974 1087.48 343.352 1088.14 356.856C1088.14 356.87 1088.14 356.883 1088.15 356.897L1083.85 357.107ZM1150.29 304.985C1150.29 304.971 1150.29 304.958 1150.29 304.944C1149.76 293.994 1139.96 285.248 1128.03 285.832C1116.09 286.416 1107.2 296.076 1107.73 307.026C1107.73 307.039 1107.73 307.053 1107.73 307.066L1103.44 307.277C1103.44 307.263 1103.43 307.25 1103.43 307.236C1102.77 293.732 1113.69 282.224 1127.82 281.533C1141.94 280.842 1153.93 291.23 1154.59 304.734C1154.59 304.748 1154.59 304.761 1154.59 304.775L1150.29 304.985ZM1217.64 252.121C1217.64 252.108 1217.64 252.094 1217.64 252.081C1217.11 241.205 1207.17 232.391 1194.88 232.992C1182.6 233.593 1173.57 243.334 1174.1 254.21C1174.1 254.223 1174.1 254.237 1174.11 254.25L1169.81 254.461C1169.81 254.447 1169.81 254.434 1169.8 254.42C1169.14 240.916 1180.28 229.398 1194.67 228.694C1209.07 227.989 1221.28 238.366 1221.94 251.871C1221.94 251.884 1221.94 251.898 1221.94 251.911L1217.64 252.121ZM1284.09 199.999C1284.09 199.986 1284.09 199.972 1284.08 199.959C1283.55 189.009 1273.76 180.262 1261.82 180.846C1249.88 181.43 1240.99 191.09 1241.53 202.04C1241.53 202.054 1241.53 202.067 1241.53 202.081L1237.23 202.291C1237.23 202.277 1237.23 202.264 1237.23 202.25C1236.57 188.746 1247.48 177.238 1261.61 176.547C1275.74 175.857 1287.72 186.244 1288.38 199.748C1288.38 199.762 1288.38 199.775 1288.39 199.789L1284.09 199.999ZM1351.31 147.43C1351.31 147.416 1351.31 147.403 1351.31 147.389C1350.78 136.504 1340.86 127.699 1328.62 128.297C1316.37 128.896 1307.36 138.628 1307.89 149.513C1307.89 149.526 1307.89 149.539 1307.9 149.553L1303.6 149.763C1303.6 149.75 1303.6 149.736 1303.59 149.723C1302.93 136.218 1314.04 124.701 1328.41 123.999C1342.77 123.296 1354.95 133.675 1355.61 147.179C1355.61 147.192 1355.61 147.206 1355.61 147.219L1351.31 147.43ZM1417.76 95.3074C1417.75 95.294 1417.75 95.2805 1417.75 95.267C1417.22 84.317 1407.43 75.5706 1395.49 76.1544C1383.55 76.7382 1374.66 86.3985 1375.19 97.3485C1375.19 97.362 1375.2 97.3755 1375.2 97.3889L1370.9 97.5992C1370.9 97.5857 1370.9 97.5722 1370.9 97.5588C1370.24 84.0544 1381.15 72.5468 1395.28 71.8559C1409.4 71.165 1421.39 81.5524 1422.05 95.0568C1422.05 95.0703 1422.05 95.0837 1422.05 95.0972L1417.76 95.3074Z" stroke="#C191A0" stroke-width="4"/>
</svg>
