<svg width="1679" height="2256" viewBox="0 0 1679 2256" fill="none" xmlns="http://www.w3.org/2000/svg">
<path d="M4.3999 2203.52C4.40056 2203.53 4.40128 2203.54 4.40192 2203.56M2.23438 2203.26L4.66956 2253.05L26.6101 2251.97L21.8109 2153.85M68.6818 2151.13L71.1169 2200.92L93.0575 2199.85L88.2214 2100.97M153.605 2007.98L65.0317 2077.47M136.028 2098.27L138.463 2148.06L160.404 2146.99L155.604 2048.86M220.051 1955.86L131.477 2025.35M202.474 2046.15L204.909 2095.94L226.849 2094.87L222.027 1996.26M287.275 1903.29L198.702 1972.78M269.698 1993.58L272.133 2043.37L294.074 2042.3L289.275 1944.17M353.72 1851.16L265.147 1920.66M336.143 1941.46L338.579 1991.25L360.519 1990.17L355.68 1891.22M421.385 1798.19L332.556 1867.69M403.747 1888.48L406.182 1938.27L428.183 1937.2L423.384 1839.07M488.022 1746.06L399.193 1815.56M470.384 1836.35L472.819 1886.14L494.82 1885.07L489.998 1786.46M555.44 1693.48L466.612 1762.98M537.802 1783.77L540.238 1833.56L562.239 1832.49L557.44 1734.36M622.077 1641.35L533.249 1710.85M604.439 1731.64L606.875 1781.43L628.876 1780.36L624.04 1681.48M689.618 1588.47L600.79 1657.98M671.98 1678.77L674.416 1728.56L696.417 1727.48L691.618 1629.36M756.255 1536.34L667.427 1605.85M738.617 1626.64L741.052 1676.43L763.054 1675.35L758.232 1576.75M823.674 1483.76L734.846 1553.27M806.036 1574.06L808.471 1623.85L830.473 1622.77L825.674 1524.65M890.311 1431.63L801.483 1501.14M872.673 1521.93L875.108 1571.72L897.11 1570.64L892.239 1471.04M958.106 1378.52L869.533 1448.01M940.529 1468.81L942.965 1518.6L964.905 1517.53L960.106 1419.4M1024.55 1326.39L935.978 1395.89M1006.97 1416.69L1009.41 1466.48L1031.35 1465.4L1026.53 1366.8M1091.78 1273.82L1003.2 1343.32M1074.2 1364.12L1076.63 1413.91L1098.58 1412.83L1093.78 1314.71M1158.22 1221.7L1069.65 1291.19M1140.65 1311.99L1143.08 1361.78L1165.02 1360.71L1160.19 1261.83M1225.57 1168.84L1137 1238.33M1207.99 1259.13L1210.43 1308.92L1232.37 1307.85L1227.57 1209.72M1292.02 1116.72L1203.44 1186.21M1274.44 1207.01L1276.87 1256.8L1298.81 1255.73L1293.99 1157.12M1359.24 1064.15L1270.67 1133.64M1341.66 1154.44L1344.1 1204.23L1366.04 1203.16L1361.24 1105.03M1337.11 1081.52L1425.69 1012.02L1432.48 1151.03L1410.54 1152.11L1408.11 1102.32M66.5503 2151.64C66.5497 2151.63 66.5491 2151.62 66.5484 2151.6C66.0129 2140.65 56.22 2131.91 44.283 2132.49C32.3461 2133.07 23.4535 2142.73 23.989 2153.68C23.9897 2153.7 23.9903 2153.71 23.991 2153.72L19.6925 2153.94C19.6918 2153.92 19.6911 2153.91 19.6905 2153.89C19.03 2140.39 29.9464 2128.88 44.0728 2128.19C58.1993 2127.5 70.1864 2137.89 70.8469 2151.39C70.8476 2151.41 70.8482 2151.42 70.8488 2151.43L66.5503 2151.64ZM133.896 2098.78C133.896 2098.77 133.895 2098.75 133.894 2098.74C133.362 2087.86 123.426 2079.05 111.141 2079.65C98.8565 2080.25 89.8276 2089.99 90.3595 2100.87C90.3602 2100.88 90.3609 2100.9 90.3616 2100.91L86.063 2101.12C86.0624 2101.11 86.0617 2101.09 86.061 2101.08C85.4006 2087.57 96.5352 2076.06 110.931 2075.35C125.327 2074.65 137.532 2085.02 138.193 2098.53C138.193 2098.54 138.194 2098.56 138.195 2098.57L133.896 2098.78ZM200.343 2046.66C200.342 2046.64 200.342 2046.63 200.341 2046.62C199.805 2035.67 190.012 2026.92 178.075 2027.5C166.139 2028.09 157.246 2037.75 157.781 2048.7C157.782 2048.71 157.783 2048.73 157.783 2048.74L153.485 2048.95C153.484 2048.94 153.484 2048.92 153.483 2048.91C152.822 2035.4 163.739 2023.9 177.865 2023.21C191.992 2022.52 203.979 2032.9 204.639 2046.41C204.64 2046.42 204.641 2046.43 204.641 2046.45L200.343 2046.66ZM267.567 1994.09C267.567 1994.07 267.566 1994.06 267.565 1994.05C267.033 1983.16 257.114 1974.36 244.872 1974.96C232.63 1975.55 223.618 1985.29 224.15 1996.17C224.151 1996.18 224.151 1996.2 224.152 1996.21L219.853 1996.42C219.853 1996.41 219.852 1996.39 219.851 1996.38C219.191 1982.88 230.299 1971.36 244.662 1970.66C259.025 1969.96 271.203 1980.33 271.864 1993.84C271.865 1993.85 271.865 1993.86 271.866 1993.88L267.567 1994.09ZM334.012 1941.97C334.011 1941.95 334.011 1941.94 334.01 1941.93C333.474 1930.98 323.682 1922.23 311.745 1922.81C299.808 1923.4 290.915 1933.06 291.451 1944.01C291.451 1944.02 291.452 1944.03 291.453 1944.05L287.154 1944.26C287.153 1944.24 287.153 1944.23 287.152 1944.22C286.492 1930.71 297.408 1919.21 311.535 1918.51C325.661 1917.82 337.648 1928.21 338.309 1941.72C338.309 1941.73 338.31 1941.74 338.311 1941.76L334.012 1941.97ZM401.621 1888.99C401.621 1888.98 401.62 1888.97 401.619 1888.95C401.088 1878.1 391.116 1869.26 378.743 1869.87C366.371 1870.47 357.308 1880.24 357.839 1891.09C357.84 1891.11 357.84 1891.12 357.841 1891.13L353.542 1891.34C353.542 1891.33 353.541 1891.32 353.54 1891.3C352.88 1877.8 364.07 1866.28 378.533 1865.57C392.997 1864.86 405.257 1875.24 405.918 1888.74C405.918 1888.76 405.919 1888.77 405.92 1888.78L401.621 1888.99ZM468.258 1836.86C468.258 1836.85 468.257 1836.83 468.256 1836.82C467.721 1825.88 457.907 1817.13 445.92 1817.71C433.932 1818.3 425.02 1827.97 425.555 1838.91C425.555 1838.92 425.556 1838.94 425.557 1838.95L421.258 1839.16C421.257 1839.15 421.257 1839.13 421.256 1839.12C420.596 1825.62 431.544 1814.11 445.71 1813.41C459.875 1812.72 471.894 1823.11 472.555 1836.61C472.555 1836.62 472.556 1836.64 472.557 1836.65L468.258 1836.86ZM535.677 1784.28C535.676 1784.27 535.676 1784.26 535.675 1784.24C535.143 1773.37 525.203 1764.55 512.909 1765.15C500.616 1765.76 491.583 1775.5 492.115 1786.37C492.116 1786.39 492.116 1786.4 492.117 1786.41L487.818 1786.62C487.818 1786.61 487.817 1786.6 487.816 1786.58C487.156 1773.08 498.296 1761.56 512.699 1760.86C527.102 1760.15 539.313 1770.53 539.974 1784.03C539.974 1784.05 539.975 1784.06 539.975 1784.07L535.677 1784.28ZM602.314 1732.15C602.313 1732.14 602.313 1732.12 602.312 1732.11C601.777 1721.17 591.963 1712.41 579.975 1713C567.988 1713.59 559.075 1723.26 559.61 1734.2C559.611 1734.21 559.612 1734.23 559.612 1734.24L555.314 1734.45C555.313 1734.44 555.312 1734.42 555.312 1734.41C554.651 1720.9 565.6 1709.4 579.765 1708.7C593.931 1708.01 605.95 1718.4 606.61 1731.9C606.611 1731.91 606.612 1731.93 606.612 1731.94L602.314 1732.15ZM669.855 1679.28C669.854 1679.26 669.854 1679.25 669.853 1679.24C669.322 1668.37 659.364 1659.55 647.027 1660.15C634.691 1660.76 625.642 1670.51 626.173 1681.37C626.174 1681.39 626.175 1681.4 626.175 1681.41L621.877 1681.62C621.876 1681.61 621.876 1681.6 621.875 1681.58C621.214 1668.08 632.382 1656.56 646.817 1655.85C661.253 1655.15 673.491 1665.52 674.151 1679.03C674.152 1679.04 674.153 1679.05 674.153 1679.07L669.855 1679.28ZM736.492 1627.15C736.491 1627.13 736.491 1627.12 736.49 1627.11C735.955 1616.17 726.141 1607.41 714.154 1608C702.166 1608.58 693.253 1618.26 693.788 1629.19C693.789 1629.21 693.79 1629.22 693.79 1629.23L689.492 1629.44C689.491 1629.43 689.491 1629.42 689.49 1629.4C688.829 1615.9 699.778 1604.39 713.943 1603.7C728.109 1603.01 740.128 1613.39 740.788 1626.9C740.789 1626.91 740.79 1626.92 740.79 1626.94L736.492 1627.15ZM803.911 1574.57C803.91 1574.55 803.909 1574.54 803.909 1574.53C803.377 1563.65 793.437 1554.84 781.143 1555.44C768.849 1556.04 759.817 1565.78 760.349 1576.66C760.349 1576.67 760.35 1576.68 760.351 1576.7L756.052 1576.91C756.052 1576.89 756.051 1576.88 756.05 1576.87C755.39 1563.36 766.53 1551.84 780.933 1551.14C795.336 1550.44 807.547 1560.81 808.207 1574.32C808.208 1574.33 808.208 1574.34 808.209 1574.36L803.911 1574.57ZM870.547 1522.44C870.547 1522.42 870.546 1522.41 870.546 1522.4C870.011 1511.46 860.197 1502.7 848.209 1503.29C836.222 1503.87 827.309 1513.54 827.844 1524.48C827.845 1524.5 827.845 1524.51 827.846 1524.52L823.547 1524.73C823.547 1524.72 823.546 1524.71 823.546 1524.69C822.885 1511.19 833.833 1499.68 847.999 1498.99C862.165 1498.29 874.184 1508.68 874.844 1522.19C874.845 1522.2 874.845 1522.21 874.846 1522.23L870.547 1522.44ZM938.399 1469.32C938.399 1469.3 938.398 1469.29 938.397 1469.28C937.867 1458.43 927.864 1449.59 915.42 1450.2C902.976 1450.81 893.884 1460.59 894.415 1471.43C894.415 1471.44 894.416 1471.46 894.417 1471.47L890.118 1471.68C890.118 1471.67 890.117 1471.65 890.116 1471.64C889.456 1458.13 900.691 1446.61 915.21 1445.9C929.729 1445.19 942.035 1455.56 942.696 1469.07C942.696 1469.08 942.697 1469.09 942.698 1469.11L938.399 1469.32ZM1004.84 1417.2C1004.84 1417.18 1004.84 1417.17 1004.84 1417.15C1004.31 1406.2 994.513 1397.46 982.577 1398.04C970.64 1398.63 961.747 1408.29 962.282 1419.24C962.283 1419.25 962.284 1419.26 962.285 1419.28L957.986 1419.49C957.985 1419.47 957.985 1419.46 957.984 1419.45C957.324 1405.94 968.24 1394.43 982.366 1393.74C996.493 1393.05 1008.48 1403.44 1009.14 1416.94C1009.14 1416.96 1009.14 1416.97 1009.14 1416.99L1004.84 1417.2ZM1072.07 1364.63C1072.07 1364.61 1072.07 1364.6 1072.07 1364.59C1071.53 1353.7 1061.62 1344.9 1049.37 1345.49C1037.13 1346.09 1028.12 1355.82 1028.65 1366.71C1028.65 1366.72 1028.65 1366.74 1028.65 1366.75L1024.35 1366.96C1024.35 1366.95 1024.35 1366.93 1024.35 1366.92C1023.69 1353.41 1034.8 1341.9 1049.16 1341.2C1063.53 1340.49 1075.7 1350.87 1076.36 1364.38C1076.37 1364.39 1076.37 1364.4 1076.37 1364.42L1072.07 1364.63ZM1138.52 1312.5C1138.51 1312.49 1138.51 1312.48 1138.51 1312.46C1137.98 1301.51 1128.18 1292.77 1116.25 1293.35C1104.31 1293.93 1095.42 1303.59 1095.95 1314.54C1095.95 1314.56 1095.96 1314.57 1095.96 1314.59L1091.66 1314.8C1091.66 1314.78 1091.66 1314.77 1091.66 1314.76C1091 1301.25 1101.91 1289.74 1116.04 1289.05C1130.16 1288.36 1142.15 1298.75 1142.81 1312.25C1142.81 1312.27 1142.81 1312.28 1142.81 1312.29L1138.52 1312.5ZM1205.86 1259.64C1205.86 1259.63 1205.86 1259.61 1205.86 1259.6C1205.33 1248.72 1195.39 1239.91 1183.11 1240.51C1170.82 1241.11 1161.79 1250.85 1162.32 1261.73C1162.33 1261.74 1162.33 1261.76 1162.33 1261.77L1158.03 1261.98C1158.03 1261.97 1158.03 1261.95 1158.03 1261.94C1157.37 1248.43 1168.5 1236.92 1182.9 1236.21C1197.29 1235.51 1209.5 1245.88 1210.16 1259.39C1210.16 1259.4 1210.16 1259.42 1210.16 1259.43L1205.86 1259.64ZM1272.31 1207.52C1272.31 1207.5 1272.31 1207.49 1272.31 1207.48C1271.77 1196.53 1261.98 1187.78 1250.04 1188.36C1238.1 1188.95 1229.21 1198.61 1229.75 1209.56C1229.75 1209.57 1229.75 1209.59 1229.75 1209.6L1225.45 1209.81C1225.45 1209.8 1225.45 1209.78 1225.45 1209.77C1224.79 1196.26 1235.7 1184.76 1249.83 1184.07C1263.96 1183.38 1275.94 1193.76 1276.6 1207.27C1276.6 1207.28 1276.61 1207.29 1276.61 1207.31L1272.31 1207.52ZM1339.53 1154.95C1339.53 1154.93 1339.53 1154.92 1339.53 1154.91C1339 1144.02 1329.08 1135.22 1316.84 1135.82C1304.59 1136.41 1295.58 1146.15 1296.11 1157.03C1296.12 1157.04 1296.12 1157.06 1296.12 1157.07L1291.82 1157.28C1291.82 1157.27 1291.82 1157.26 1291.82 1157.24C1291.16 1143.74 1302.26 1132.22 1316.63 1131.52C1330.99 1130.82 1343.17 1141.19 1343.83 1154.7C1343.83 1154.71 1343.83 1154.72 1343.83 1154.74L1339.53 1154.95ZM1405.98 1102.83C1405.98 1102.81 1405.98 1102.8 1405.97 1102.79C1405.44 1091.84 1395.65 1083.09 1383.71 1083.67C1371.77 1084.26 1362.88 1093.92 1363.42 1104.87C1363.42 1104.88 1363.42 1104.89 1363.42 1104.91L1359.12 1105.12C1359.12 1105.1 1359.12 1105.09 1359.12 1105.08C1358.46 1091.57 1369.37 1080.07 1383.5 1079.37C1397.63 1078.68 1409.61 1089.07 1410.27 1102.58C1410.27 1102.59 1410.27 1102.6 1410.28 1102.62L1405.98 1102.83Z" stroke="#C191A0" stroke-width="4"/>
</svg>
