<svg width="273" height="260" viewBox="0 0 273 260" fill="none" xmlns="http://www.w3.org/2000/svg">
<path d="M43.3773 113.992C51.38 110.673 62.6251 121.859 67.2512 114.244C73.0545 101.356 82.6474 93.6887 96.1746 89.2667C122.527 75.4758 124.675 98.9193 142.384 96.5141C150.81 91.504 159.928 86.7669 169.624 85.265C189.295 85.1284 202.141 98.9508 208.44 116.901C262.766 116.576 290.739 153.106 260.38 206.054C253.493 218.028 242.237 226.619 234.441 238.089C232.221 240.977 233.45 245.2 236.93 248.886C242.103 252.983 236.176 263.171 230.827 258.15C176.873 225.695 106.201 226.661 46.8572 241.954C10.3234 258.56 38.1729 238.057 28.043 223.888C0.276084 188.776 -21.6669 113.53 43.3773 113.992ZM203.339 144.662C208.44 82.7967 136.178 87.4917 141.145 114.359C148.476 120.178 163.398 121.228 164.317 132.971C164.595 142.382 168.034 155.322 157.254 159.734C136.798 168.252 145.379 176.34 157.357 188.965C171.658 206.547 105.334 223.762 157.77 224.088C164.73 225.937 181.892 231.472 182.573 220.979C187.561 196.286 204.795 172.086 203.349 144.651L203.339 144.662ZM69.6262 135.009C73.6018 163.673 82.1828 191.895 94.2127 218.07C99.4893 224.498 108.865 219.246 115.629 222.313C123.415 226.073 129.714 218.395 122.744 213.343C99.0969 190.603 109.165 188.629 129.91 171.487C131.934 168.452 132.109 164.019 127.019 163.578C113.739 160.154 106.697 139.714 116.228 129.201C119.522 119.968 133.235 121.123 134.299 111.754C122.134 73.5852 64.7316 99.3605 69.6469 134.998L69.6262 135.009ZM213.19 144.546C214.388 161.95 206.003 181.644 200.757 199.027C200.448 209.352 174.55 229.308 194.717 231.514C205.497 234.696 221.854 246.324 227.017 229.823C238.933 212.744 259.399 200.55 264.18 178.482C265.554 165.689 264.614 150.659 255.579 140.744C243.58 131.028 207.655 114.79 213.19 144.535V144.546ZM39.3088 123.056C-15.843 132.583 30.4077 192.914 39.3914 223.416C38.3071 227.68 43.8419 231.661 47.5697 230.558C76.6686 218.994 90.9806 239.045 76.5654 195.792C72.342 185.215 69.2958 173.735 65.3615 162.969C62.0675 140.219 68.2838 124.495 39.3088 123.056ZM139.08 123.875C109.433 126.06 118.025 169.407 144.718 162.339C165.298 156.793 159.835 122.363 139.08 123.875ZM149.406 195.004C146.628 189.332 140.629 174.376 132.326 176.991C127.721 181.707 117.601 184.91 116.909 191.78C125.191 209.509 141.961 219.046 149.406 195.015V195.004Z" fill="black"/>
<path d="M122.786 14.9131C136.736 18.2847 125.976 -4.48658 140.206 0.975175C144.677 2.47716 144.646 5.18703 144.553 8.71616C142.188 21.0786 155.282 13.5582 158.555 21.4042C159.609 35.2056 141.435 26.1097 139.204 35.5313C139.029 38.5352 137.397 42.621 142.612 43.7134C147.486 46.6543 150.8 52.9458 153.929 57.6829C158.349 67.535 139.266 90.7054 131.109 79.5929C104.013 53.9962 135.859 58.6282 131.274 31.1619C129.849 25.6896 122.517 26.929 118.325 25.1119C112.594 21.8139 116.125 12.5814 122.786 14.9342V14.9131ZM128.919 62.924C127.432 78.9417 148.818 72.6817 144.088 60.9389C140.092 53.7861 128.393 49.9944 128.919 62.924Z" fill="black"/>
</svg>
