<svg width="1368" height="700" viewBox="0 0 1368 700" fill="none" xmlns="http://www.w3.org/2000/svg">
<path d="M676.348 595.762L671.253 574.964" stroke="#DF635D" stroke-width="2"/>
<path d="M684.804 595.761L684.804 574.649" stroke="#DF635D" stroke-width="2"/>
<path d="M691.814 595.762L696.909 574.964" stroke="#DF635D" stroke-width="2"/>
<path d="M709.358 595.632L720.441 574.675" stroke="#DF635D" stroke-width="2"/>
<path d="M700.361 595.853L708.26 574.663" stroke="#DF635D" stroke-width="2"/>
<path d="M667.636 595.853L659.736 574.663" stroke="#DF635D" stroke-width="2"/>
<path d="M1.36963 263.816V698.885L1366.72 698.864V263.816H1.36963Z" stroke="#DF635D" stroke-width="2"/>
<path d="M433.926 180.849V698.885L934.163 698.86V180.849H433.926Z" stroke="#DF635D" stroke-width="2"/>
<path d="M68.772 699.004V179.866H154.905V698.881" stroke="#DF635D" stroke-width="2"/>
<path d="M1213.18 699.004V179.866H1299.32V698.881" stroke="#DF635D" stroke-width="2"/>
<path d="M1.47119 263.908L119.164 206.871H433.817" stroke="#DF635D" stroke-width="2"/>
<path d="M1366.51 263.908L1248.82 206.871H934.162" stroke="#DF635D" stroke-width="2"/>
<path d="M1.45312 339.862H434.009" stroke="#DF635D" stroke-width="2"/>
<path d="M1.45312 415.486H1366.72" stroke="#DF635D" stroke-width="2"/>
<path d="M1.45312 491.417H1366.72" stroke="#DF635D" stroke-width="2"/>
<path d="M934.162 339.862H1366.72" stroke="#DF635D" stroke-width="2"/>
<path d="M541.858 698.879V491.436" stroke="#DF635D" stroke-width="2"/>
<path d="M826.281 698.879V491.436" stroke="#DF635D" stroke-width="2"/>
<path d="M627.07 501.322V672.719L618.75 691.416H750.014L740.617 672.817V501.322H627.07Z" stroke="#DF635D" stroke-width="2"/>
<path d="M664.775 679.389V612.545H703.192V679.389" stroke="#DF635D" stroke-width="2"/>
<path d="M649.96 595.7V679.389H717.976V595.7H649.96Z" stroke="#DF635D" stroke-width="2"/>
<path d="M650.046 595.836L635.167 574.557H732.447L717.843 595.836" stroke="#DF635D" stroke-width="2"/>
<path d="M658.554 595.632L647.472 574.675" stroke="#DF635D" stroke-width="2"/>
<path d="M684.276 522.281C650.447 522.281 644.072 546.002 644.072 546.002L651.742 546.144C651.742 546.144 659.156 528.233 684.276 528.233C709.395 528.233 717.826 546.144 717.826 546.144H725.109C725.109 546.144 718.105 522.282 684.276 522.281Z" stroke="#DF635D" stroke-width="2"/>
<path d="M155.698 167.53C155.698 192.56 136.033 212.797 111.839 212.797C87.6449 212.797 67.9795 192.56 67.9795 167.53C67.9795 142.5 87.6449 122.262 111.839 122.262C136.033 122.262 155.698 142.5 155.698 167.53Z" stroke="#DF635D" stroke-width="2"/>
<path d="M102.731 122.935V90.6886C102.731 90.6886 102.731 81.6406 111.972 81.6406C121.213 81.6406 121.213 90.6886 121.213 90.6886V122.935" stroke="#DF635D" stroke-width="2"/>
<path d="M111.808 81.4971V0.456055" stroke="#DF635D" stroke-width="2"/>
<path d="M1300.11 167.53C1300.11 192.56 1280.44 212.797 1256.25 212.797C1232.06 212.797 1212.39 192.56 1212.39 167.53C1212.39 142.5 1232.06 122.262 1256.25 122.262C1280.44 122.262 1300.11 142.5 1300.11 167.53Z" stroke="#DF635D" stroke-width="2"/>
<path d="M1247.14 122.935V90.6886C1247.14 90.6886 1247.14 81.6406 1256.38 81.6406C1265.62 81.6406 1265.62 90.6886 1265.62 90.6886V122.935" stroke="#DF635D" stroke-width="2"/>
<path d="M1256.22 81.4971V0.456055" stroke="#DF635D" stroke-width="2"/>
<path d="M686.913 69.4604L614.419 180.963L753.717 180.801L686.913 69.4604Z" stroke="#DF635D" stroke-width="2"/>
<path d="M444.392 181.073L528.887 135.26H839.951L924.624 180.895" stroke="#DF635D" stroke-width="2"/>
<path d="M535.552 135.439V104.377C535.552 104.377 587.806 48.245 684.333 45.6873C780.859 43.1296 833.113 104.377 833.113 104.377V135.345" stroke="#DF635D" stroke-width="2"/>
<path d="M535.552 122.685C535.552 122.685 587.806 66.5531 684.333 63.9954C780.859 61.4377 833.113 122.685 833.113 122.685" stroke="#DF635D" stroke-width="2"/>
</svg>
